# xmcd
# 
# Track frame offsets:
#     150
#     19451
#     32779
#     52257
#     65442
#     79569
#     94157
#     110550
#     127523
#     146536
#     158630
# 
# Disc length: 2351
# 
# Revision: 0
# Processed by: cddbd v1.5.2PL0 Copyright (c) Steve Scherf et al.
# Submitted via: fre:ac v1.1beta1pre4
# 
DISCID=8d092d0b
DTITLE=NHD - And The Devil Went Up To Portland
DYEAR=2017
DGENRE=Folk
TTITLE0=The Boys Are Back In Town
TTITLE1=Hello From An Emergency Room In Hollywood
TTITLE2=I Sent A Postcard
TTITLE3=Lose Or Take It All
TTITLE4=Ballad Of A Patient Man
TTITLE5=Devil's Dice
TTITLE6=Gimme A Go
TTITLE7=Complicatedness
TTITLE8=Somebody Loves Me
TTITLE9=You're The Light
TTITLE10=You Thought You'd Be In Heaven
EXTD=
EXTT0=
EXTT1=
EXTT2=
EXTT3=
EXTT4=
EXTT5=
EXTT6=
EXTT7=
EXTT8=
EXTT9=
EXTT10=
PLAYORDER=
